<svg width="44" height="44" viewBox="0 0 44 44" fill="none" xmlns="http://www.w3.org/2000/svg">
<mask id="mask0_337_3711" style="mask-type:alpha" maskUnits="userSpaceOnUse" x="0" y="0" width="44" height="44">
<path d="M18.6574 22.0986C16.6744 17.0384 14.5184 10.1349 14.5184 7.74149C14.5184 3.79674 17.7164 0.598633 21.6613 0.598633C25.6062 0.598633 28.8041 3.79674 28.8041 7.74149C28.8041 10.1349 26.6482 17.0384 24.6652 22.0986C26.6482 27.1589 28.8041 34.0624 28.8041 36.4558C28.8041 40.4005 25.6062 43.5986 21.6613 43.5986C17.7164 43.5986 14.5184 40.4005 14.5184 36.4558C14.5184 34.0624 16.6744 27.1589 18.6574 22.0986Z" fill="white"/>
<path d="M21.5898 19.1662C26.65 17.1832 33.5536 15.0272 35.947 15.0272C39.8919 15.0272 43.0898 18.2252 43.0898 22.1701C43.0898 26.115 39.8919 29.3129 35.947 29.3129C33.5536 29.3129 26.65 27.157 21.5898 25.174C16.5297 27.157 9.62609 29.3129 7.2327 29.3129C3.28781 29.3129 0.0898399 26.115 0.0898399 22.1701C0.0898399 18.2252 3.28781 15.0272 7.2327 15.0272C9.62609 15.0272 16.5297 17.1832 21.5898 19.1662Z" fill="white"/>
</mask>
<g mask="url(#mask0_337_3711)">
<rect width="64.5" height="64.5" transform="matrix(-1 0 0 1 64.5898 -20.9014)" fill="#4285F4"/>
</g>
</svg>
