<svg width="44" height="44" viewBox="0 0 44 44" fill="none" xmlns="http://www.w3.org/2000/svg">
<mask id="mask0_337_3816" style="mask-type:alpha" maskUnits="userSpaceOnUse" x="0" y="0" width="44" height="44">
<path d="M25.2352 22.3096C27.2182 27.3698 29.3742 34.2733 29.3742 36.6667C29.3742 40.6115 26.1762 43.8096 22.2313 43.8096C18.2864 43.8096 15.0884 40.6115 15.0884 36.6667C15.0884 34.2733 17.2444 27.3698 19.2274 22.3096C17.2444 17.2493 15.0884 10.3458 15.0884 7.95243C15.0884 4.00767 18.2864 0.809566 22.2313 0.809566C26.1762 0.809566 29.3742 4.00767 29.3742 7.95243C29.3742 10.3458 27.2182 17.2493 25.2352 22.3096Z" fill="white"/>
<path d="M22.3027 25.242C17.2426 27.225 10.339 29.381 7.94559 29.381C4.0007 29.381 0.802734 26.183 0.802734 22.2381C0.802734 18.2932 4.0007 15.0953 7.94559 15.0953C10.339 15.0953 17.2426 17.2512 22.3027 19.2342C27.3629 17.2512 34.2665 15.0953 36.6599 15.0953C40.6048 15.0953 43.8027 18.2932 43.8027 22.2381C43.8027 26.183 40.6048 29.381 36.6599 29.381C34.2665 29.381 27.3629 27.225 22.3027 25.242Z" fill="white"/>
</mask>
<g mask="url(#mask0_337_3816)">
<rect width="64.5" height="64.5" transform="matrix(1 0 0 -1 -20.6973 65.3096)" fill="#FCBC05"/>
</g>
</svg>
